<svg id="Layer_1" data-name="Layer 1" xmlns="http://www.w3.org/2000/svg" viewBox="0 0 43.28 53.77"><title>elephpant-logo</title><path d="M18.4,49.4l2.3,6.3,4.6,0.2L24.5,40.3l-1.2-6.8-3.5.4L18.4,49.4h0Z" transform="translate(0.94 -3.66)" style="fill:none;stroke:#fff;stroke-linecap:round;stroke-linejoin:round;stroke-width:1.875px"/><path d="M0,41.8c4.8-.3,10-0.9,10-0.9l3.1,14.9L18,56.5l1.7-24.2,2.9,0.3,5.3,5.2,9.4-3,1.3-4.3,1-9.5,1.8-2.2-1-.6-3,2.4L33.7,30.8l-2.7.1,1.5-13.6L26.3,9,19,10.1S2.7,5,0,4.6" transform="translate(0.94 -3.66)" style="fill:none;stroke:#fff;stroke-linecap:round;stroke-linejoin:round;stroke-width:1.875px"/><path d="M18.7,10.3l-8.6,1.4L8.9,24.3l8.7,9,2.7-1C20.2,32.3,18.7,10.3,18.7,10.3Z" transform="translate(0.94 -3.66)" style="fill:none;stroke:#fff;stroke-linecap:round;stroke-linejoin:round;stroke-width:1.875px"/></svg>