<?xml version="1.0" encoding="utf-8"?>
<!-- Generator: Adobe Illustrator 19.2.1, SVG Export Plug-In . SVG Version: 6.00 Build 0)  -->
<svg version="1.1" id="Layer_1" xmlns="http://www.w3.org/2000/svg" xmlns:xlink="http://www.w3.org/1999/xlink" x="0px" y="0px"
	 viewBox="0 0 60 60" style="enable-background:new 0 0 60 60;" xml:space="preserve">
<style type="text/css">
	.st0{fill:none;stroke:#FFFFFF;stroke-width:1.875;stroke-linecap:round;stroke-linejoin:round;}
</style>
<path class="st0" d="M18.4,49.4l2.3,6.3l4.6,0.2l-0.8-15.6l-1.2-6.8l-3.5,0.4L18.4,49.4L18.4,49.4z"/>
<path class="st0" d="M0,41.8c4.8-0.3,10-0.9,10-0.9l3.1,14.9l4.9,0.7l1.7-24.2l2.9,0.3l5.3,5.2l9.4-3l1.3-4.3l1-9.5l1.8-2.2l-1-0.6
	l-3,2.4l-3.7,10.2L31,30.9l1.5-13.6L26.3,9L19,10.1c0,0-16.3-5.1-19-5.5"/>
<path class="st0" d="M18.7,10.3l-8.6,1.4L8.9,24.3l8.7,9l2.7-1C20.2,32.3,18.7,10.3,18.7,10.3z"/>
</svg>
